<svg xmlns="http://www.w3.org/2000/svg" viewBox="0 0 80 80"><defs><style>.cls-1{fill:#fff;}</style></defs><g id="Layer_2" data-name="Layer 2"><g id="logo"><g id="logo_1" data-name="logo 1"><path class="cls-1" d="M30,1.13,1.13,30a3.84,3.84,0,0,0,2.71,6.55H32.71a3.82,3.82,0,0,0,3.83-3.83V3.84A3.84,3.84,0,0,0,30,1.13Z"/><path class="cls-1" d="M47.29,36.54H76.16A3.84,3.84,0,0,0,78.87,30L50,1.13a3.84,3.84,0,0,0-6.55,2.71V32.71A3.82,3.82,0,0,0,47.29,36.54Z"/><path class="cls-1" d="M32.71,43.46H3.84A3.84,3.84,0,0,0,1.13,50L30,78.87a3.84,3.84,0,0,0,6.55-2.71V47.29A3.82,3.82,0,0,0,32.71,43.46Z"/><path class="cls-1" d="M47.29,80H76.16a3.84,3.84,0,0,0,2.71-6.55L50,44.59a3.83,3.83,0,0,0-6.55,2.71V76.16A3.83,3.83,0,0,0,47.29,80Z"/></g></g></g></svg>